<svg xmlns="http://www.w3.org/2000/svg" viewBox="0 0 600 350" font-family="'Noto Sans SC', sans-serif">
  <rect width="600" height="350" fill="#fefce8" rx="16"/>
  <text x="300" y="35" text-anchor="middle" font-size="18" font-weight="bold" fill="#854d0e">小明和小花的比赛</text>
  <!-- Left bike -->
  <g transform="translate(120,200)">
    <circle cx="0" cy="0" r="30" fill="#e2e8f0" stroke="#64748b" stroke-width="2"/>
    <circle cx="60" cy="0" r="30" fill="#e2e8f0" stroke="#64748b" stroke-width="2"/>
    <line x1="0" y1="0" x2="30" y2="-50" stroke="#64748b" stroke-width="3"/>
    <line x1="60" y1="0" x2="30" y2="-50" stroke="#64748b" stroke-width="3"/>
    <line x1="30" y1="-50" x2="0" y2="-90" stroke="#64748b" stroke-width="3"/>
    <line x1="30" y1="-50" x2="60" y2="-90" stroke="#64748b" stroke-width="3"/>
    <line x1="0" y1="-90" x2="60" y2="-90" stroke="#64748b" stroke-width="3"/>
    <circle cx="30" cy="-50" r="8" fill="#e2e8f0" stroke="#64748b" stroke-width="2"/>
  </g>
  <!-- Xiao Ming head -->
  <circle cx="150" cy="130" r="20" fill="#fcd34d"/>
  <circle cx="145" cy="126" r="2" fill="#1e293b"/>
  <circle cx="155" cy="126" r="2" fill="#1e293b"/>
  <path d="M145 136 Q150 142 155 136" fill="#a21caf" stroke="#a21caf" stroke-width="1"/>
  <!-- Book -->
  <rect x="130" y="145" width="40" height="28" rx="3" fill="#fef3c7" stroke="#d97706" stroke-width="1"/>
  <text x="150" y="162" text-anchor="middle" font-size="6" fill="#d97706">说明书</text>
  <line x1="130" y1="150" x2="170" y2="150" stroke="#d97706" stroke-width="0.5"/>
  <line x1="130" y1="155" x2="170" y2="155" stroke="#d97706" stroke-width="0.5"/>
  <line x1="130" y1="160" x2="170" y2="160" stroke="#d97706" stroke-width="0.5"/>
  <line x1="130" y1="165" x2="170" y2="165" stroke="#d97706" stroke-width="0.5"/>
  <text x="150" y="145" text-anchor="middle" font-size="9" fill="#1e293b">小明</text>
  <!-- Right bike (moving) -->
  <g transform="translate(380,200)">
    <circle cx="0" cy="0" r="30" fill="#bfdbfe" stroke="#3b82f6" stroke-width="2"/>
    <circle cx="60" cy="0" r="30" fill="#bfdbfe" stroke="#3b82f6" stroke-width="2"/>
    <line x1="0" y1="0" x2="30" y2="-50" stroke="#3b82f6" stroke-width="3"/>
    <line x1="60" y1="0" x2="30" y2="-50" stroke="#3b82f6" stroke-width="3"/>
    <line x1="30" y1="-50" x2="10" y2="-85" stroke="#3b82f6" stroke-width="3"/>
    <line x1="30" y1="-50" x2="55" y2="-85" stroke="#3b82f6" stroke-width="3"/>
    <line x1="10" y1="-85" x2="55" y2="-85" stroke="#3b82f6" stroke-width="3"/>
    <circle cx="30" cy="-50" r="8" fill="#bfdbfe" stroke="#3b82f6" stroke-width="2"/>
  </g>
  <circle cx="410" cy="130" r="20" fill="#fde047"/>
  <circle cx="405" cy="126" r="2" fill="#1e293b"/>
  <circle cx="415" cy="126" r="2" fill="#1e293b"/>
  <path d="M405 136 Q410 140 415 136" fill="#e11d48" stroke="#e11d48" stroke-width="1"/>
  <text x="410" y="145" text-anchor="middle" font-size="9" fill="#1e293b">小花</text>
  <!-- Speed lines -->
  <line x1="350" y1="195" x2="320" y2="195" stroke="#3b82f6" stroke-width="1"/>
  <line x1="355" y1="205" x2="310" y2="205" stroke="#3b82f6" stroke-width="1"/>
  <line x1="350" y1="215" x2="325" y2="215" stroke="#3b82f6" stroke-width="1"/>
  <!-- Finish line -->
  <line x1="520" y1="140" x2="520" y2="250" stroke="#dc2626" stroke-width="3" stroke-dasharray="8,4"/>
  <text x="540" y="160" fill="#dc2626" font-size="10">终点</text>
  <text x="300" y="320" text-anchor="middle" font-size="12" fill="#854d0e">小明背说明书，小花直接骑——结果呢？</text>
</svg>