<svg xmlns="http://www.w3.org/2000/svg" viewBox="0 0 600 480" font-family="'Noto Sans SC', sans-serif">
  <rect width="600" height="480" fill="#f8fafc" rx="16"/>
  <text x="300" y="35" text-anchor="middle" font-size="18" font-weight="bold" fill="#1e293b">五层通关法</text>
  
  <!-- L1 Monkey -->
  <rect x="20" y="60" width="260" height="70" rx="10" fill="#ecfdf5" stroke="#059669" stroke-width="2"/>
  <circle cx="58" cy="95" r="25" fill="#fb923c"/>
  <circle cx="48" cy="90" r="4" fill="#1e293b"/>
  <circle cx="68" cy="90" r="4" fill="#1e293b"/>
  <path d="M52 100 Q58 108 64 100" stroke="#1e293b" stroke-width="2" fill="none"/>
  <ellipse cx="73" cy="82" rx="10" ry="6" fill="#fdba74"/>
  <text x="60" y="62" text-anchor="middle" font-size="12" font-weight="bold" fill="#059669">第一关 🐒 跟屁虫</text>
  <text x="120" y="95" fill="#065f46" font-size="10">照着做，不犯错</text>
  <text x="120" y="115" fill="#047857" font-size="9">跟着老师做一遍</text>

  <!-- L2 Owl -->
  <rect x="320" y="60" width="260" height="70" rx="10" fill="#fefce8" stroke="#ca8a04" stroke-width="2"/>
  <circle cx="358" cy="95" r="25" fill="#a78bfa"/>
  <circle cx="348" cy="90" r="5" fill="white"/>
  <circle cx="348" cy="90" r="3" fill="#1e293b"/>
  <circle cx="368" cy="90" r="5" fill="white"/>
  <circle cx="368" cy="90" r="3" fill="#1e293b"/>
  <polygon points="358,75 348,82 368,82" fill="#f59e0b"/>
  <text x="360" y="62" text-anchor="middle" font-size="12" font-weight="bold" fill="#ca8a04">第二关 🦉 小侦探</text>
  <text x="420" y="95" fill="#854d0e" font-size="10">拆开看，找零件</text>
  <text x="420" y="115" fill="#a16207" font-size="9">把它分成几个部分</text>

  <!-- L3 Cat -->
  <rect x="20" y="150" width="260" height="70" rx="10" fill="#f0f9ff" stroke="#0284c7" stroke-width="2"/>
  <circle cx="58" cy="185" r="25" fill="#fcd34d"/>
  <polygon points="42,168 48,180 36,180" fill="#fcd34d"/>
  <polygon points="74,168 68,180 80,180" fill="#fcd34d"/>
  <circle cx="48" cy="182" r="3" fill="#1e293b"/>
  <circle cx="68" cy="182" r="3" fill="#1e293b"/>
  <ellipse cx="58" cy="192" rx="6" ry="3" fill="#f472b6"/>
  <text x="60" y="152" text-anchor="middle" font-size="12" font-weight="bold" fill="#0284c7">第三关 🐱 小玩家</text>
  <text x="120" y="185" fill="#0f766e" font-size="10">改一改，猜一猜</text>
  <text x="120" y="205" fill="#0f766e" font-size="9">改个条件，先说结果再验证</text>

  <!-- L4 Wolf -->
  <rect x="320" y="150" width="260" height="70" rx="10" fill="#fef2f2" stroke="#dc2626" stroke-width="2"/>
  <circle cx="358" cy="185" r="25" fill="#94a3b8"/>
  <ellipse cx="348" cy="178" rx="6" ry="4" fill="#e2e8f0"/>
  <ellipse cx="368" cy="178" rx="6" ry="4" fill="#e2e8f0"/>
  <circle cx="348" cy="178" r="2" fill="#dc2626"/>
  <circle cx="368" cy="178" r="2" fill="#dc2626"/>
  <ellipse cx="358" cy="192" rx="8" ry="5" fill="#dc2626"/>
  <polygon points="350,192 345,200 355,195" fill="white"/>
  <polygon points="366,192 375,200 362,195" fill="white"/>
  <text x="360" y="152" text-anchor="middle" font-size="12" font-weight="bold" fill="#dc2626">第四关 🐺 破坏王</text>
  <text x="420" y="185" fill="#991b1b" font-size="10">故意搞坏它</text>
  <text x="420" y="205" fill="#991b1b" font-size="9">知道什么时候会失败</text>

  <!-- L5 Dolphin -->
  <rect x="170" y="240" width="260" height="70" rx="10" fill="#ecfeff" stroke="#0891b2" stroke-width="2"/>
  <path d="M270 275 Q300 245 340 275 Q300 310 270 275" fill="#06b6d4"/>
  <circle cx="275" cy="270" r="3" fill="#1e293b"/>
  <path d="M270 275 L260 268" stroke="#06b6d4" stroke-width="3"/>
  <text x="300" y="247" text-anchor="middle" font-size="12" font-weight="bold" fill="#0891b2">第五关 🐬 小老师</text>
  <text x="350" y="275" fill="#155e75" font-size="10">讲给别人听</text>
  <text x="350" y="295" fill="#155e75" font-size="9">能教别人才叫真学会了</text>

  <!-- Arrow progression -->
  <text x="295" y="100" text-anchor="middle" fill="#94a3b8" font-size="16">→</text>
  <text x="295" y="190" text-anchor="middle" fill="#94a3b8" font-size="16">→</text>
  <text x="295" y="280" text-anchor="middle" fill="#94a3b8" font-size="16">→</text>
  
  <text x="300" y="355" text-anchor="middle" font-size="12" font-weight="bold" fill="#1e293b">五关全部通过 = 学透了！</text>
  
  <!-- Level badge -->
  <rect x="200" y="375" width="200" height="50" rx="25" fill="#facc15" stroke="#ca8a04" stroke-width="2"/>
  <text x="300" y="400" text-anchor="middle" font-size="14" font-weight="bold" fill="#854d0e">🏆 学透认证 🏆</text>
  <text x="300" y="420" text-anchor="middle" font-size="9" fill="#854d0e">跟 → 看 → 玩 → 破 → 教</text>

  <text x="300" y="470" text-anchor="middle" fill="#94a3b8" font-size="10">五层通关：跟 → 看 → 玩 → 破 → 教</text>
</svg>