<svg xmlns="http://www.w3.org/2000/svg" viewBox="0 0 600 400" font-family="'Noto Sans SC', sans-serif">
  <rect width="600" height="400" fill="#f0fdf4" rx="16"/>
  <text x="300" y="35" text-anchor="middle" font-size="18" font-weight="bold" fill="#166534">大冒险：学会跳房子</text>
  
  <!-- Hopscotch grid -->
  <rect x="50" y="80" width="60" height="60" rx="4" fill="#fef3c7" stroke="#d97706" stroke-width="2"/>
  <text x="80" y="115" text-anchor="middle" font-size="14" fill="#d97706">1</text>
  <rect x="50" y="150" width="60" height="60" rx="4" fill="#fef3c7" stroke="#d97706" stroke-width="2"/>
  <text x="80" y="185" text-anchor="middle" font-size="14" fill="#d97706">2</text>
  <rect x="130" y="150" width="60" height="60" rx="4" fill="#fef3c7" stroke="#d97706" stroke-width="2"/>
  <text x="160" y="185" text-anchor="middle" font-size="14" fill="#d97706">3</text>
  <rect x="50" y="220" width="60" height="60" rx="4" fill="#fef3c7" stroke="#d97706" stroke-width="2"/>
  <text x="80" y="255" text-anchor="middle" font-size="14" fill="#d97706">4</text>
  <rect x="130" y="220" width="60" height="60" rx="4" fill="#fef3c7" stroke="#d97706" stroke-width="2"/>
  <text x="160" y="255" text-anchor="middle" font-size="14" fill="#d97706">5</text>
  
  <!-- Stone -->
  <circle cx="80" cy="100" r="8" fill="#94a3b8"/>
  
  <!-- Footprints -->
  <ellipse cx="80" cy="270" rx="12" ry="6" fill="#d1fae5" stroke="#059669" stroke-width="1"/>
  <text x="60" y="295" font-size="8" fill="#059669">🦶</text>
  
  <!-- Five levels checklist -->
  <rect x="250" y="70" width="320" height="310" rx="10" fill="white" stroke="#059669" stroke-width="2"/>
  <text x="410" y="95" text-anchor="middle" font-size="13" font-weight="bold" fill="#166534">五层闯关</text>
  
  <rect x="270" y="110" width="280" height="40" rx="6" fill="#ecfdf5" stroke="#059669" stroke-width="1"/>
  <text x="410" y="130" text-anchor="middle" font-size="10" fill="#065f46">🐒 跟屁虫：看别人跳，跟着跳一次</text>
  <text x="410" y="143" text-anchor="middle" font-size="9" fill="#059669">⏺ 完成！</text>
  
  <rect x="270" y="160" width="280" height="40" rx="6" fill="#fefce8" stroke="#ca8a04" stroke-width="1"/>
  <text x="410" y="180" text-anchor="middle" font-size="10" fill="#854d0e">🦉 小侦探：分几步？</text>
  <text x="410" y="193" text-anchor="middle" font-size="9" fill="#ca8a04">⏺ 完成！</text>
  
  <rect x="270" y="210" width="280" height="40" rx="6" fill="#f0f9ff" stroke="#0284c7" stroke-width="1"/>
  <text x="410" y="230" text-anchor="middle" font-size="10" fill="#0f766e">🐱 小玩家：格子画大会怎样？</text>
  <text x="410" y="243" text-anchor="middle" font-size="9" fill="#0284c7">⏺ 完成！</text>
  
  <rect x="270" y="260" width="280" height="40" rx="6" fill="#fef2f2" stroke="#dc2626" stroke-width="1"/>
  <text x="410" y="280" text-anchor="middle" font-size="10" fill="#991b1b">🐺 破坏王：滑的时候不好玩</text>
  <text x="410" y="293" text-anchor="middle" font-size="9" fill="#dc2626">⏺ 完成！</text>
  
  <rect x="270" y="310" width="280" height="50" rx="6" fill="#ecfeff" stroke="#0891b2" stroke-width="1"/>
  <text x="410" y="330" text-anchor="middle" font-size="10" fill="#155e75">🐬 小老师：教朋友跳</text>
  <text x="410" y="348" text-anchor="middle" font-size="9" fill="#0891b2">⏺ 完成！🎉</text>
  
  <text x="300" y="385" text-anchor="middle" font-size="12" font-weight="bold" fill="#166534">五关通过 = 学透了！什么都能这样学！</text>
</svg>