<svg xmlns="http://www.w3.org/2000/svg" viewBox="0 0 600 350" font-family="'Noto Sans SC', sans-serif">
  <rect width="600" height="350" fill="#0f172a" rx="16"/>
  <!-- Stars -->
  <circle cx="50" cy="40" r="2" fill="white" opacity="0.8"/>
  <circle cx="150" cy="70" r="1" fill="white" opacity="0.6"/>
  <circle cx="400" cy="30" r="2" fill="white" opacity="0.8"/>
  <circle cx="550" cy="60" r="1.5" fill="white" opacity="0.7"/>
  <circle cx="80" cy="120" r="1" fill="white" opacity="0.5"/>
  <circle cx="520" cy="100" r="2" fill="white" opacity="0.8"/>
  <circle cx="300" cy="20" r="1" fill="white" opacity="0.6"/>
  <circle cx="580" cy="150" r="1" fill="white" opacity="0.5"/>
  <circle cx="30" cy="200" r="1.5" fill="white" opacity="0.7"/>
  <!-- Earth -->
  <circle cx="300" cy="200" r="100" fill="#1e40af"/>
  <path d="M220 160 Q260 140 300 150 Q340 160 370 145 Q390 140 400 160" fill="#22c55e" opacity="0.8"/>
  <path d="M340 200 Q360 220 380 210 Q390 205 395 220" fill="#22c55e" opacity="0.8"/>
  <path d="M200 220 Q230 230 250 215 Q260 210 250 230 Q240 250 220 250 Q200 250 200 220" fill="#22c55e" opacity="0.8"/>
  <path d="M300 270 Q320 280 340 260 Q350 250 360 270" fill="#22c55e" opacity="0.7"/>
  <!-- Book floating -->
  <g transform="translate(300,190)">
    <rect x="-25" y="-15" width="50" height="35" rx="3" fill="#fbbf24" stroke="#d97706" stroke-width="1"/>
    <line x1="-20" y1="-8" x2="20" y2="-8" stroke="#d97706" stroke-width="0.5"/>
    <line x1="-20" y1="-2" x2="20" y2="-2" stroke="#d97706" stroke-width="0.5"/>
    <line x1="-20" y1="4" x2="20" y2="4" stroke="#d97706" stroke-width="0.5"/>
    <text x="0" y="12" text-anchor="middle" font-size="6" fill="#92400e">学透</text>
  </g>
  <!-- Light rays -->
  <line x1="300" y1="100" x2="200" y2="40" stroke="#fbbf24" stroke-width="1" opacity="0.3"/>
  <line x1="300" y1="100" x2="400" y2="40" stroke="#fbbf24" stroke-width="1" opacity="0.3"/>
  <line x1="300" y1="100" x2="100" y2="80" stroke="#fbbf24" stroke-width="1" opacity="0.2"/>
  <line x1="300" y1="100" x2="500" y2="80" stroke="#fbbf24" stroke-width="1" opacity="0.2"/>
  <line x1="300" y1="100" x2="150" y2="140" stroke="#fbbf24" stroke-width="1" opacity="0.2"/>
  <line x1="300" y1="100" x2="450" y2="140" stroke="#fbbf24" stroke-width="1" opacity="0.2"/>

  <text x="300" y="320" text-anchor="middle" font-size="14" font-weight="bold" fill="#fbbf24">学透 = 会变</text>
  <text x="300" y="338" text-anchor="middle" font-size="10" fill="#94a3b8">LEARN ≠ MEMORIZE. LEARN = TRANSFORM.</text>
</svg>